<svg width="500" height="347" viewBox="0 0 500 347" fill="none" xmlns="http://www.w3.org/2000/svg">
<rect width="500" height="346.591" fill="#2C2948"/>
<path d="M56.8811 187V159H67.3611C69.6278 159 71.5078 159.387 73.0011 160.16C74.4944 160.933 75.6011 161.973 76.3211 163.28C77.0411 164.587 77.4011 166.08 77.4011 167.76C77.4011 169.307 77.0544 170.733 76.3611 172.04C75.6678 173.347 74.5744 174.413 73.0811 175.24C71.5878 176.04 69.6811 176.44 67.3611 176.44H62.2811V187H56.8811ZM62.2811 172.08H67.0411C68.7744 172.08 70.0144 171.693 70.7611 170.92C71.5344 170.12 71.9211 169.067 71.9211 167.76C71.9211 166.373 71.5344 165.307 70.7611 164.56C70.0144 163.787 68.7744 163.4 67.0411 163.4H62.2811V172.08ZM89.8358 187.48C87.9158 187.48 86.1824 187.04 84.6358 186.16C83.1158 185.253 81.9024 184.013 80.9958 182.44C80.1158 180.84 79.6758 179.013 79.6758 176.96C79.6758 174.853 80.1158 173.013 80.9958 171.44C81.9024 169.84 83.1291 168.6 84.6758 167.72C86.2224 166.813 87.9558 166.36 89.8758 166.36C91.8224 166.36 93.5558 166.813 95.0758 167.72C96.6224 168.6 97.8358 169.84 98.7158 171.44C99.6224 173.013 100.076 174.84 100.076 176.92C100.076 179 99.6224 180.84 98.7158 182.44C97.8358 184.013 96.6224 185.253 95.0758 186.16C93.5291 187.04 91.7824 187.48 89.8358 187.48ZM89.8358 182.8C90.7424 182.8 91.5424 182.587 92.2358 182.16C92.9558 181.733 93.5158 181.08 93.9158 180.2C94.3424 179.32 94.5558 178.227 94.5558 176.92C94.5558 175.613 94.3424 174.533 93.9158 173.68C93.5158 172.8 92.9558 172.147 92.2358 171.72C91.5424 171.267 90.7558 171.04 89.8758 171.04C89.0224 171.04 88.2358 171.267 87.5158 171.72C86.7958 172.147 86.2224 172.8 85.7958 173.68C85.3958 174.533 85.1958 175.613 85.1958 176.92C85.1958 178.227 85.3958 179.32 85.7958 180.2C86.2224 181.08 86.7824 181.733 87.4758 182.16C88.1958 182.587 88.9824 182.8 89.8358 182.8ZM112.97 187.48C111.13 187.48 109.53 187.187 108.17 186.6C106.81 186.013 105.743 185.2 104.97 184.16C104.197 183.12 103.757 181.947 103.65 180.64H109.01C109.143 181.147 109.37 181.613 109.69 182.04C110.01 182.44 110.437 182.76 110.97 183C111.503 183.24 112.143 183.36 112.89 183.36C113.61 183.36 114.197 183.267 114.65 183.08C115.103 182.867 115.437 182.587 115.65 182.24C115.89 181.893 116.01 181.533 116.01 181.16C116.01 180.6 115.85 180.173 115.53 179.88C115.21 179.56 114.743 179.307 114.13 179.12C113.517 178.933 112.77 178.747 111.89 178.56C110.93 178.373 109.983 178.147 109.05 177.88C108.143 177.587 107.33 177.227 106.61 176.8C105.89 176.373 105.317 175.827 104.89 175.16C104.463 174.493 104.25 173.667 104.25 172.68C104.25 171.48 104.57 170.413 105.21 169.48C105.85 168.52 106.783 167.76 108.01 167.2C109.237 166.64 110.717 166.36 112.45 166.36C114.877 166.36 116.797 166.907 118.21 168C119.623 169.093 120.463 170.6 120.73 172.52H115.65C115.49 171.907 115.13 171.427 114.57 171.08C114.037 170.707 113.317 170.52 112.41 170.52C111.45 170.52 110.717 170.693 110.21 171.04C109.703 171.387 109.45 171.84 109.45 172.4C109.45 172.773 109.61 173.107 109.93 173.4C110.277 173.693 110.757 173.947 111.37 174.16C111.983 174.347 112.73 174.533 113.61 174.72C115.157 175.04 116.517 175.413 117.69 175.84C118.863 176.24 119.783 176.827 120.45 177.6C121.117 178.347 121.45 179.44 121.45 180.88C121.45 182.16 121.103 183.307 120.41 184.32C119.717 185.307 118.73 186.08 117.45 186.64C116.197 187.2 114.703 187.48 112.97 187.48ZM134.474 187C133.061 187 131.821 186.787 130.754 186.36C129.714 185.907 128.901 185.173 128.314 184.16C127.727 183.12 127.434 181.707 127.434 179.92V171.36H123.994V166.84H127.434L128.034 161.36H132.834V166.84H138.154V171.36H132.834V180C132.834 180.907 133.034 181.533 133.434 181.88C133.834 182.227 134.514 182.4 135.474 182.4H138.114V187H134.474ZM151.871 187.48C149.844 187.48 148.044 187.053 146.471 186.2C144.924 185.32 143.711 184.107 142.831 182.56C141.977 180.987 141.551 179.173 141.551 177.12C141.551 175.013 141.977 173.16 142.831 171.56C143.711 169.933 144.924 168.667 146.471 167.76C148.017 166.827 149.817 166.36 151.871 166.36C153.871 166.36 155.617 166.8 157.111 167.68C158.604 168.56 159.764 169.747 160.591 171.24C161.417 172.733 161.831 174.427 161.831 176.32C161.831 176.587 161.831 176.893 161.831 177.24C161.831 177.56 161.804 177.893 161.751 178.24H145.391V174.96H156.391C156.311 173.653 155.844 172.627 154.991 171.88C154.164 171.133 153.124 170.76 151.871 170.76C150.964 170.76 150.124 170.973 149.351 171.4C148.577 171.8 147.964 172.427 147.511 173.28C147.084 174.133 146.871 175.213 146.871 176.52V177.68C146.871 178.773 147.071 179.733 147.471 180.56C147.897 181.36 148.484 181.987 149.231 182.44C149.977 182.867 150.844 183.08 151.831 183.08C152.817 183.08 153.631 182.867 154.271 182.44C154.937 182.013 155.431 181.467 155.751 180.8H161.271C160.897 182.053 160.271 183.187 159.391 184.2C158.511 185.213 157.431 186.013 156.151 186.6C154.871 187.187 153.444 187.48 151.871 187.48ZM166.253 187V166.84H171.053L171.573 170.56C172.053 169.68 172.653 168.933 173.373 168.32C174.12 167.707 174.96 167.227 175.893 166.88C176.853 166.533 177.907 166.36 179.053 166.36V172.08H177.213C176.413 172.08 175.667 172.173 174.973 172.36C174.307 172.547 173.72 172.853 173.213 173.28C172.707 173.68 172.32 174.24 172.053 174.96C171.787 175.68 171.653 176.587 171.653 177.68V187H166.253ZM192.155 187V159H197.555L210.435 178.32V159H215.835V187H210.435L197.555 167.72V187H192.155ZM230.695 187.48C228.775 187.48 227.042 187.04 225.495 186.16C223.975 185.253 222.762 184.013 221.855 182.44C220.975 180.84 220.535 179.013 220.535 176.96C220.535 174.853 220.975 173.013 221.855 171.44C222.762 169.84 223.988 168.6 225.535 167.72C227.082 166.813 228.815 166.36 230.735 166.36C232.682 166.36 234.415 166.813 235.935 167.72C237.482 168.6 238.695 169.84 239.575 171.44C240.482 173.013 240.935 174.84 240.935 176.92C240.935 179 240.482 180.84 239.575 182.44C238.695 184.013 237.482 185.253 235.935 186.16C234.388 187.04 232.642 187.48 230.695 187.48ZM230.695 182.8C231.602 182.8 232.402 182.587 233.095 182.16C233.815 181.733 234.375 181.08 234.775 180.2C235.202 179.32 235.415 178.227 235.415 176.92C235.415 175.613 235.202 174.533 234.775 173.68C234.375 172.8 233.815 172.147 233.095 171.72C232.402 171.267 231.615 171.04 230.735 171.04C229.882 171.04 229.095 171.267 228.375 171.72C227.655 172.147 227.082 172.8 226.655 173.68C226.255 174.533 226.055 175.613 226.055 176.92C226.055 178.227 226.255 179.32 226.655 180.2C227.082 181.08 227.642 181.733 228.335 182.16C229.055 182.587 229.842 182.8 230.695 182.8ZM253.888 187C252.475 187 251.235 186.787 250.168 186.36C249.128 185.907 248.315 185.173 247.728 184.16C247.141 183.12 246.848 181.707 246.848 179.92V171.36H243.408V166.84H246.848L247.448 161.36H252.248V166.84H257.568V171.36H252.248V180C252.248 180.907 252.448 181.533 252.848 181.88C253.248 182.227 253.928 182.4 254.888 182.4H257.528V187H253.888ZM269.767 187L280.007 159H286.127L296.327 187H290.607L283.047 165.16L275.447 187H269.767ZM274.287 180.64L275.727 176.44H289.967L291.367 180.64H274.287ZM303.06 187L295.66 166.84H301.34L306.34 181.92L311.34 166.84H316.98L309.62 187H303.06ZM325.866 187.48C324.186 187.48 322.799 187.213 321.706 186.68C320.612 186.12 319.799 185.387 319.266 184.48C318.759 183.547 318.506 182.52 318.506 181.4C318.506 180.173 318.812 179.093 319.426 178.16C320.066 177.227 321.012 176.493 322.266 175.96C323.546 175.427 325.146 175.16 327.066 175.16H332.066C332.066 174.173 331.932 173.36 331.666 172.72C331.399 172.053 330.986 171.56 330.426 171.24C329.866 170.92 329.119 170.76 328.186 170.76C327.172 170.76 326.306 170.987 325.586 171.44C324.892 171.867 324.466 172.533 324.306 173.44H319.066C319.199 172 319.666 170.76 320.466 169.72C321.292 168.653 322.372 167.827 323.706 167.24C325.066 166.653 326.572 166.36 328.226 166.36C330.119 166.36 331.759 166.68 333.146 167.32C334.532 167.96 335.599 168.88 336.346 170.08C337.092 171.28 337.466 172.76 337.466 174.52V187H332.906L332.306 183.92C332.012 184.453 331.666 184.933 331.266 185.36C330.866 185.787 330.399 186.16 329.866 186.48C329.332 186.8 328.732 187.04 328.066 187.2C327.399 187.387 326.666 187.48 325.866 187.48ZM327.146 183.32C327.839 183.32 328.452 183.2 328.986 182.96C329.546 182.693 330.026 182.347 330.426 181.92C330.826 181.467 331.132 180.96 331.346 180.4C331.586 179.813 331.746 179.187 331.826 178.52V178.48H327.706C326.879 178.48 326.199 178.587 325.666 178.8C325.159 178.987 324.786 179.267 324.546 179.64C324.306 180.013 324.186 180.44 324.186 180.92C324.186 181.453 324.306 181.893 324.546 182.24C324.786 182.587 325.132 182.853 325.586 183.04C326.039 183.227 326.559 183.32 327.146 183.32ZM342.623 187V166.84H348.023V187H342.623ZM345.343 164.08C344.383 164.08 343.583 163.8 342.943 163.24C342.33 162.653 342.023 161.92 342.023 161.04C342.023 160.16 342.33 159.44 342.943 158.88C343.583 158.293 344.383 158 345.343 158C346.33 158 347.13 158.293 347.743 158.88C348.383 159.44 348.703 160.16 348.703 161.04C348.703 161.92 348.383 162.653 347.743 163.24C347.13 163.8 346.33 164.08 345.343 164.08ZM353.48 187V158.2H358.88V187H353.48ZM370.944 187.48C369.264 187.48 367.877 187.213 366.784 186.68C365.691 186.12 364.877 185.387 364.344 184.48C363.837 183.547 363.584 182.52 363.584 181.4C363.584 180.173 363.891 179.093 364.504 178.16C365.144 177.227 366.091 176.493 367.344 175.96C368.624 175.427 370.224 175.16 372.144 175.16H377.144C377.144 174.173 377.011 173.36 376.744 172.72C376.477 172.053 376.064 171.56 375.504 171.24C374.944 170.92 374.197 170.76 373.264 170.76C372.251 170.76 371.384 170.987 370.664 171.44C369.971 171.867 369.544 172.533 369.384 173.44H364.144C364.277 172 364.744 170.76 365.544 169.72C366.371 168.653 367.451 167.827 368.784 167.24C370.144 166.653 371.651 166.36 373.304 166.36C375.197 166.36 376.837 166.68 378.224 167.32C379.611 167.96 380.677 168.88 381.424 170.08C382.171 171.28 382.544 172.76 382.544 174.52V187H377.984L377.384 183.92C377.091 184.453 376.744 184.933 376.344 185.36C375.944 185.787 375.477 186.16 374.944 186.48C374.411 186.8 373.811 187.04 373.144 187.2C372.477 187.387 371.744 187.48 370.944 187.48ZM372.224 183.32C372.917 183.32 373.531 183.2 374.064 182.96C374.624 182.693 375.104 182.347 375.504 181.92C375.904 181.467 376.211 180.96 376.424 180.4C376.664 179.813 376.824 179.187 376.904 178.52V178.48H372.784C371.957 178.48 371.277 178.587 370.744 178.8C370.237 178.987 369.864 179.267 369.624 179.64C369.384 180.013 369.264 180.44 369.264 180.92C369.264 181.453 369.384 181.893 369.624 182.24C369.864 182.587 370.211 182.853 370.664 183.04C371.117 183.227 371.637 183.32 372.224 183.32ZM399.501 187.48C398.461 187.48 397.528 187.347 396.701 187.08C395.901 186.813 395.181 186.453 394.541 186C393.928 185.52 393.408 184.987 392.981 184.4L392.381 187H387.581V158.2H392.981V169.64C393.621 168.707 394.461 167.933 395.501 167.32C396.568 166.68 397.888 166.36 399.461 166.36C401.328 166.36 402.981 166.827 404.421 167.76C405.888 168.667 407.035 169.92 407.861 171.52C408.715 173.093 409.141 174.907 409.141 176.96C409.141 178.96 408.715 180.76 407.861 182.36C407.035 183.96 405.901 185.213 404.461 186.12C403.021 187.027 401.368 187.48 399.501 187.48ZM398.221 182.76C399.288 182.76 400.221 182.52 401.021 182.04C401.848 181.533 402.488 180.853 402.941 180C403.395 179.12 403.621 178.107 403.621 176.96C403.621 175.813 403.395 174.8 402.941 173.92C402.488 173.013 401.848 172.32 401.021 171.84C400.221 171.333 399.288 171.08 398.221 171.08C397.181 171.08 396.248 171.333 395.421 171.84C394.621 172.32 393.981 173 393.501 173.88C393.048 174.76 392.821 175.773 392.821 176.92C392.821 178.067 393.048 179.093 393.501 180C393.981 180.88 394.621 181.56 395.421 182.04C396.248 182.52 397.181 182.76 398.221 182.76ZM413.792 187V158.2H419.192V187H413.792ZM434.136 187.48C432.11 187.48 430.31 187.053 428.736 186.2C427.19 185.32 425.976 184.107 425.096 182.56C424.243 180.987 423.816 179.173 423.816 177.12C423.816 175.013 424.243 173.16 425.096 171.56C425.976 169.933 427.19 168.667 428.736 167.76C430.283 166.827 432.083 166.36 434.136 166.36C436.136 166.36 437.883 166.8 439.376 167.68C440.87 168.56 442.03 169.747 442.856 171.24C443.683 172.733 444.096 174.427 444.096 176.32C444.096 176.587 444.096 176.893 444.096 177.24C444.096 177.56 444.07 177.893 444.016 178.24H427.656V174.96H438.656C438.576 173.653 438.11 172.627 437.256 171.88C436.43 171.133 435.39 170.76 434.136 170.76C433.23 170.76 432.39 170.973 431.616 171.4C430.843 171.8 430.23 172.427 429.776 173.28C429.35 174.133 429.136 175.213 429.136 176.52V177.68C429.136 178.773 429.336 179.733 429.736 180.56C430.163 181.36 430.75 181.987 431.496 182.44C432.243 182.867 433.11 183.08 434.096 183.08C435.083 183.08 435.896 182.867 436.536 182.44C437.203 182.013 437.696 181.467 438.016 180.8H443.536C443.163 182.053 442.536 183.187 441.656 184.2C440.776 185.213 439.696 186.013 438.416 186.6C437.136 187.187 435.71 187.48 434.136 187.48Z" fill="white"/>
</svg>
